<?xml version="1.0" encoding="UTF-8" standalone="no"?>
<svg xmlns="http://www.w3.org/2000/svg" xmlns:xlink="http://www.w3.org/1999/xlink" xmlns:serif="http://www.serif.com/" width="100%" height="100%" viewBox="0 0 520 239" version="1.1" xml:space="preserve" style="fill-rule:evenodd;clip-rule:evenodd;stroke-linejoin:round;stroke-miterlimit:2;">
    <g transform="matrix(0.895143,0,0,0.89697,10,9.2432)">
        <path d="M102.662,45.35C102.662,48.49 99.852,50.579 96.334,50L9.345,35.694C4.225,34.848 0,31.002 0,27.128L0,6.044C0,2.166 4.225,-0.016 9.345,1.164L96.334,21.132C99.852,21.939 102.662,25.139 102.662,28.274L102.662,45.35Z" style="fill:rgb(141,216,248);"></path>
    </g>
    <g transform="matrix(0.895143,0,0,0.89697,10,9.2432)">
        <path d="M183.377,59.672C183.377,62.238 181.509,64.011 179.178,63.624L123.701,54.5C120.559,53.984 117.971,51.1 117.971,48.068L117.971,31.591C117.971,28.557 120.559,26.695 123.701,27.414L179.178,40.15C181.509,40.688 183.377,43.194 183.377,45.752L183.377,59.672Z" style="fill:rgb(0,185,242);"></path>
    </g>
    <g transform="matrix(0.895143,0,0,0.89697,10,9.2432)">
        <path d="M238.918,69.536C238.918,71.695 237.593,73.232 235.94,72.958L197.485,66.633C195.357,66.284 193.616,63.979 193.616,61.496L193.616,47.972C193.616,45.487 195.357,43.866 197.485,44.353L235.94,53.182C237.593,53.563 238.918,55.623 238.918,57.784L238.918,69.536Z" style="fill:rgb(141,216,248);"></path>
    </g>
    <g transform="matrix(0.895143,0,0,0.89697,10,9.2432)">
        <path d="M102.662,88.407C102.662,91.539 99.852,93.906 96.334,93.677L9.345,87.935C4.225,87.596 0,84.169 0,80.296L0,59.218C0,55.327 4.225,52.73 9.345,53.402L96.334,64.804C99.852,65.262 102.662,68.186 102.662,71.335L102.662,88.407Z" style="fill:rgb(141,216,248);"></path>
    </g>
    <g transform="matrix(0.895143,0,0,0.89697,10,9.2432)">
        <path d="M183.377,94.774C183.377,97.335 181.509,99.29 179.178,99.139L123.701,95.476C120.559,95.27 117.971,92.636 117.971,89.615L117.971,73.143C117.971,70.099 120.559,67.976 123.701,68.392L179.178,75.666C181.509,75.968 183.377,78.288 183.377,80.863L183.377,94.774Z" style="fill:rgb(0,185,242);"></path>
    </g>
    <g transform="matrix(0.895143,0,0,0.89697,10,9.2432)">
        <path d="M238.918,99.168C238.918,101.324 237.593,102.991 235.94,102.883L197.485,100.345C195.357,100.207 193.616,98.07 193.616,95.588L193.616,82.073C193.616,79.578 195.357,77.782 197.485,78.061L235.94,83.102C237.593,83.316 238.918,85.25 238.918,87.418L238.918,99.168Z" style="fill:rgb(0,185,242);"></path>
    </g>
    <g transform="matrix(0.895143,0,0,0.89697,10,9.2432)">
        <path d="M102.662,131.461C102.662,134.599 99.852,137.242 96.334,137.357L9.345,140.19C4.225,140.353 0,137.342 0,133.47L0,112.387C0,108.496 4.225,105.489 9.345,105.655L96.334,108.487C99.852,108.6 102.662,111.24 102.662,114.388L102.662,131.461Z" style="fill:rgb(0,185,242);"></path>
    </g>
    <g transform="matrix(0.895143,0,0,0.89697,10,9.2432)">
        <path d="M183.377,129.888C183.377,132.441 181.509,134.585 179.178,134.657L123.701,136.465C120.559,136.569 117.971,134.189 117.971,131.164L117.971,114.688C117.971,111.647 120.559,109.272 123.701,109.377L179.178,111.182C181.509,111.261 183.377,113.397 183.377,115.963L183.377,129.888Z" style="fill:rgb(0,102,179);"></path>
    </g>
    <g transform="matrix(0.895143,0,0,0.89697,10,9.2432)">
        <path d="M238.918,128.8C238.918,130.959 237.593,132.759 235.94,132.808L197.485,134.063C195.357,134.131 193.616,132.169 193.616,129.683L193.616,116.169C193.616,113.671 195.357,111.709 197.485,111.778L235.94,113.035C237.593,113.081 238.918,114.879 238.918,117.05L238.918,128.8Z" style="fill:rgb(0,185,242);"></path>
    </g>
    <g transform="matrix(0.895143,0,0,0.89697,10,9.2432)">
        <path d="M102.662,174.516C102.662,177.649 99.852,180.566 96.334,181.032L9.345,192.428C4.225,193.103 0,190.506 0,186.634L0,165.556C0,161.664 4.225,158.236 9.345,157.9L96.334,152.161C99.852,151.928 102.662,154.295 102.662,157.447L102.662,174.516Z" style="fill:rgb(0,185,242);"></path>
    </g>
    <g transform="matrix(0.895143,0,0,0.89697,10,9.2432)">
        <path d="M183.377,164.985C183.377,167.543 181.509,169.862 179.178,170.172L123.701,177.44C120.559,177.851 117.971,175.732 117.971,172.706L117.971,156.235C117.971,153.194 120.559,150.564 123.701,150.357L179.178,146.697C181.509,146.541 183.377,148.502 183.377,151.067L183.377,164.985Z" style="fill:rgb(0,102,179);"></path>
    </g>
    <g transform="matrix(0.895143,0,0,0.89697,10,9.2432)">
        <path d="M238.918,158.427C238.918,160.585 237.593,162.514 235.94,162.732L197.485,167.772C195.357,168.049 193.616,166.257 193.616,163.773L193.616,150.259C193.616,147.765 195.357,145.627 197.485,145.486L235.94,142.95C237.593,142.845 238.918,144.512 238.918,146.678L238.918,158.427Z" style="fill:rgb(0,102,179);"></path>
    </g>
    <g transform="matrix(0.895143,0,0,0.89697,10,9.2432)">
        <path d="M102.662,217.567C102.662,220.708 99.852,223.898 96.334,224.708L9.345,244.678C4.225,245.859 0,243.681 0,239.8L0,218.721C0,214.835 4.225,210.996 9.345,210.151L96.334,195.843C99.852,195.264 102.662,197.349 102.662,200.5L102.662,217.567Z" style="fill:rgb(0,102,179);"></path>
    </g>
    <g transform="matrix(0.895143,0,0,0.89697,10,9.2432)">
        <path d="M183.377,200.088C183.377,202.648 181.509,205.151 179.178,205.684L123.701,218.426C120.559,219.146 117.971,217.283 117.971,214.257L117.971,197.785C117.971,194.738 120.559,191.859 123.701,191.343L179.178,182.218C181.509,181.833 183.377,183.599 183.377,186.171L183.377,200.088Z" style="fill:rgb(0,102,179);"></path>
    </g>
    <g transform="matrix(0.895143,0,0,0.89697,10,9.2432)">
        <path d="M238.918,188.059C238.918,190.22 237.593,192.279 235.94,192.655L197.485,201.485C195.357,201.973 193.616,200.358 193.616,197.869L193.616,184.353C193.616,181.857 195.357,179.556 197.485,179.206L235.94,172.884C237.593,172.611 238.918,174.14 238.918,176.311L238.918,188.059Z" style="fill:rgb(0,102,179);"></path>
    </g>
    <g transform="matrix(0.895143,0,0,0.89697,10,9.2432)">
        <path d="M271.572,123.394L271.572,57.923C271.572,56.9 270.828,56.156 269.898,56.156L264.783,56.156C263.76,56.156 263.109,56.993 263.109,57.923L263.109,123.394C263.109,124.417 263.853,125.254 264.783,125.254L269.898,125.254C270.921,125.254 271.572,124.324 271.572,123.394Z" style="fill:rgb(31,86,161);fill-rule:nonzero;"></path>
    </g>
    <g transform="matrix(0.895143,0,0,0.89697,10,9.2432)">
        <path d="M331.371,61.922L331.371,57.83C331.371,56.807 330.627,56.156 329.604,56.156L284.871,56.156C283.848,56.156 283.011,56.9 283.011,57.83L283.011,61.922C283.011,62.945 283.848,63.41 284.871,63.41L303.006,63.41L303.006,123.394C303.006,124.417 303.75,125.254 304.68,125.254L309.795,125.254C310.818,125.254 311.469,124.324 311.469,123.394L311.469,63.41L329.604,63.41C330.627,63.41 331.371,62.852 331.371,61.922Z" style="fill:rgb(31,86,161);fill-rule:nonzero;"></path>
    </g>
    <g transform="matrix(0.895143,0,0,0.89697,10,9.2432)">
        <path d="M361.131,99.866L361.131,96.239C361.131,95.216 360.387,94.565 359.364,94.565L340.857,94.565C339.834,94.565 339.09,95.309 339.09,96.239L339.09,99.866C339.09,100.888 339.834,101.446 340.857,101.446L359.364,101.446C360.387,101.446 361.131,100.796 361.131,99.866Z" style="fill:rgb(31,86,161);fill-rule:nonzero;"></path>
    </g>
    <g transform="matrix(0.895143,0,0,0.89697,10,9.2432)">
        <path d="M417.21,61.922L417.21,57.83C417.21,56.807 416.466,56.156 415.443,56.156L370.71,56.156C369.687,56.156 368.85,56.9 368.85,57.83L368.85,61.922C368.85,62.945 369.687,63.41 370.71,63.41L388.845,63.41L388.845,123.394C388.845,124.417 389.589,125.254 390.519,125.254L395.634,125.254C396.657,125.254 397.308,124.324 397.308,123.394L397.308,63.41L415.443,63.41C416.466,63.41 417.21,62.852 417.21,61.922Z" style="fill:rgb(31,86,161);fill-rule:nonzero;"></path>
    </g>
    <g transform="matrix(0.895143,0,0,0.89697,10,9.2432)">
        <path d="M446.319,115.489C441.855,117.907 438.042,119.209 433.764,119.209C428.37,119.209 425.208,117.442 425.208,110.746L425.208,109.63C425.208,103.027 428.184,100.517 439.437,100.517L446.319,100.517L446.319,115.489ZM454.503,123.394L454.503,90.938C454.503,79.964 449.295,73.454 436.368,73.454C430.044,73.454 425.766,74.012 421.953,74.663C420.651,74.849 420,75.407 420,76.43L420,79.685C420,80.894 420.837,81.173 421.674,81.173L422.139,81.173C425.859,80.801 430.323,80.429 436.368,80.429C443.622,80.429 446.319,83.126 446.319,90.938L446.319,94.658L439.437,94.658C422.883,94.658 417.024,99.68 417.024,109.723L417.024,110.839C417.024,122.464 424.278,125.905 432.183,125.905C437.391,125.905 442.041,123.952 446.505,121.348L446.505,123.394C446.505,124.417 447.342,125.254 448.365,125.254L452.643,125.254C453.666,125.254 454.503,124.417 454.503,123.394Z" style="fill:rgb(31,86,161);fill-rule:nonzero;"></path>
    </g>
    <g transform="matrix(0.895143,0,0,0.89697,10,9.2432)">
        <path d="M500.259,129.439C500.259,134.554 497.841,137.53 487.239,137.53C476.916,137.53 473.847,134.275 473.847,129.067L473.847,128.23C473.847,123.394 475.707,121.069 478.404,118.744L488.913,121.441C497.283,123.58 500.259,125.068 500.259,128.695L500.259,129.439ZM499.515,91.31C499.515,96.89 497.004,100.796 486.96,100.796C476.265,100.796 474.405,95.402 474.405,91.31L474.405,90.566C474.405,85.358 476.544,80.615 486.96,80.615C497.004,80.615 499.515,84.986 499.515,90.566L499.515,91.31ZM509.466,78.569L509.466,76.151C509.466,75.035 508.443,74.105 507.327,74.105L486.96,74.105C470.964,74.105 466.314,82.289 466.314,90.566L466.314,91.31C466.314,96.053 467.709,99.401 470.592,102.097C467.988,103.585 466.779,106.282 466.779,108.793L466.779,108.886C466.779,111.769 468.081,114.838 471.057,116.14L471.708,116.419C468.639,118.744 465.849,123.022 465.849,128.23L465.849,129.067C465.849,138.181 472.545,143.854 487.239,143.854C502.491,143.854 508.443,138.367 508.443,129.439L508.443,128.695C508.443,119.953 499.701,117.349 490.587,115.024L476.73,111.49C474.591,110.932 473.847,110.095 473.847,108.514C473.847,107.119 474.591,106.096 476.172,105.352C478.869,106.468 482.031,107.212 486.96,107.212C501.282,107.212 507.606,101.539 507.606,91.31L507.606,90.566C507.606,85.544 506.118,82.754 504.444,80.987L507.792,80.336C508.815,80.15 509.466,79.778 509.466,78.569Z" style="fill:rgb(31,86,161);fill-rule:nonzero;"></path>
    </g>
    <g transform="matrix(0.895143,0,0,0.89697,10,9.2432)">
        <path d="M550.293,96.053L525.648,96.053L525.648,95.216C525.648,85.172 530.112,80.615 538.11,80.615C546.294,80.615 550.293,84.707 550.293,95.216L550.293,96.053ZM558.57,100.238L558.57,95.216C558.57,82.01 551.688,73.454 538.11,73.454C524.811,73.454 517.464,81.917 517.464,95.216L517.464,103.585C517.464,120.883 527.88,125.905 538.575,125.905C544.806,125.905 549.921,125.347 555.222,124.324C556.71,124.045 557.082,123.394 557.082,122.185L557.082,119.023C557.082,118.093 556.338,117.721 555.594,117.721L555.129,117.721C550.851,118.372 543.969,118.744 538.575,118.744C530.019,118.744 525.648,114.652 525.648,103.585L525.648,102.283L556.803,102.283C557.919,102.283 558.57,101.446 558.57,100.238Z" style="fill:rgb(31,86,161);fill-rule:nonzero;"></path>
    </g>
    <g transform="matrix(0.895143,0,0,0.89697,10,9.2432)">
        <path d="M290.212,155.208C290.212,147.35 285.3,143.779 274.95,143.779C271.175,143.779 266.83,144.226 263.579,145.057C262.94,145.184 262.365,145.568 262.365,146.2L262.365,148.436C262.365,149.139 262.748,149.586 263.387,149.586L263.643,149.586C267.214,149.075 271.622,148.628 274.95,148.628C281.85,148.628 284.533,150.608 284.533,155.208C284.533,159.041 283.255,160.574 277.953,164.152L271.494,168.496C264.537,173.166 261.726,178.66 261.726,185.304L261.726,190.473C261.726,191.175 262.301,191.687 263.004,191.687L288.36,191.687C289.063,191.687 289.637,191.239 289.637,190.537L289.637,187.732C289.637,187.029 289.063,186.646 288.36,186.646L266.83,186.646L266.83,185.304C266.83,179.746 268.683,176.488 275.781,171.697L281.914,167.538C287.855,163.513 290.212,160.255 290.212,155.208ZM330.269,172.272L330.269,163.641C330.269,149.522 324.27,143.779 314.623,143.779C304.97,143.779 298.907,149.522 298.907,163.641L298.907,172.272C298.907,186.39 304.97,192.134 314.623,192.134C324.27,192.134 330.269,186.39 330.269,172.272ZM324.461,172.272C324.461,183.068 320.628,187.221 314.623,187.221C308.611,187.221 304.778,183.068 304.778,172.272L304.778,163.641C304.778,152.844 308.611,148.692 314.623,148.692C320.628,148.692 324.461,152.844 324.461,163.641L324.461,172.272ZM367.514,155.208C367.514,147.35 362.601,143.779 352.245,143.779C348.476,143.779 344.132,144.226 340.88,145.057C340.241,145.184 339.666,145.568 339.666,146.2L339.666,148.436C339.666,149.139 340.049,149.586 340.688,149.586L340.944,149.586C344.515,149.075 348.923,148.628 352.245,148.628C359.151,148.628 361.834,150.608 361.834,155.208C361.834,159.041 360.557,160.574 355.254,164.152L348.795,168.496C341.832,173.166 339.027,178.66 339.027,185.304L339.027,190.473C339.027,191.175 339.602,191.687 340.305,191.687L365.661,191.687C366.364,191.687 366.939,191.239 366.939,190.537L366.939,187.732C366.939,187.029 366.364,186.646 365.661,186.646L344.132,186.646L344.132,185.304C344.132,179.746 345.984,176.488 353.082,171.697L359.215,167.538C365.15,163.513 367.514,160.255 367.514,155.208ZM405.845,178.494L405.845,177.159C405.845,173.466 404.312,169.391 399.782,167.155C403.737,165.18 405.845,161.462 405.845,157.163L405.845,156.262C405.845,146.775 399.463,143.779 389.944,143.779C385.855,143.779 382.214,144.418 379.147,145.057C378.508,145.184 377.933,145.695 377.933,146.264L377.933,148.5C377.933,149.203 378.381,149.586 379.02,149.586L379.211,149.586C383.364,149.075 386.239,148.628 389.944,148.628C397.163,148.628 399.91,150.998 399.91,156.262L399.91,157.163C399.91,160.562 398.568,164.797 392.435,164.797L380.808,164.797C380.106,164.797 379.595,165.308 379.595,166.011L379.595,168.241C379.595,168.943 380.106,169.391 380.808,169.391L392.435,169.391C398.249,169.391 399.91,173.786 399.91,177.159L399.91,178.494C399.91,184.608 396.907,187.285 389.944,187.285C386.941,187.285 383.044,186.902 379.211,186.39L379.02,186.39C378.381,186.39 377.933,186.774 377.933,187.476L377.933,189.642C377.933,190.281 378.508,190.728 379.147,190.856C382.214,191.559 385.919,192.134 389.944,192.134C399.271,192.134 405.845,188.051 405.845,178.494Z" style="fill:rgb(31,86,161);fill-rule:nonzero;"></path>
    </g>
</svg>
